<mxfile host="app.diagrams.net" modified="2023-06-26T14:40:45.436Z" agent="Mozilla/5.0 (Windows NT 10.0; Win64; x64) AppleWebKit/537.36 (KHTML, like Gecko) Chrome/112.0.0.0 Safari/537.36" version="21.5.0" etag="Ats_Xy79hqo6zmU_NCoi" type="github">
  <diagram name="第 1 页" id="bokM9EOz-pBj7F4X9Rss">
    <mxGraphModel>
      <root>
        <mxCell id="0" />
        <mxCell id="1" parent="0" />
      </root>
    </mxGraphModel>
  </diagram>
</mxfile>
